# xmcd
#
# Track frame offsets:
#	150
#	18296
#	49343
#	79876
#	100802
#	137517
#	151010
#	177730
#	190501
#	209904
#	246238
#	274879
#	303634
#	336015
#
# Disc length: 4717
#
# Revision: 1
# Processed by: cddbd v1.5.1PL0 Copyright (c) Steve Scherf et al.
# Submitted via: CDex 1.51
# Normalized: r0:TDELIM( - ),TSWAP
#
DISCID=c7126b0e
DTITLE=Various Artist - Classic Jazz - Jazz Lounge
DYEAR=2004
DGENRE=Jazz
TTITLE0=Kenny Russell - Midnight Blue
TTITLE1=Wayne Shorter - Infant Eyes
TTITLE2=Shirley Horn - A Time For Love
TTITLE3=George Benson - Summer of '42
TTITLE4=Dave Brubeck - These Foolish Things
TTITLE5=Charlie Parker - Laura
TTITLE6=HerbEllis - When Your Lover Has Gone
TTITLE7=George Benson - When Sunny Gets Blue
TTITLE8=Nancy Wilson - The Masquerade is Over
TTITLE9=Ben Webster - Soulville
TTITLE10=Grant Green - Django
TTITLE11=Zoot Sims - The Very Thought of You
TTITLE12=Wynton Kelly - Weird Lullaby
TTITLE13=Stan Getz - Blood Count
EXTD=YEAR: 2004
EXTT0=
EXTT1=
EXTT2=
EXTT3=
EXTT4=
EXTT5=
EXTT6=
EXTT7=
EXTT8=
EXTT9=
EXTT10=
EXTT11=
EXTT12=
EXTT13=
PLAYORDER=
